<svg width="62" height="6" viewBox="0 0 62 6" fill="none" xmlns="http://www.w3.org/2000/svg">
<path fill-rule="evenodd" clip-rule="evenodd" d="M3.10314 1.93361C2.88777 1.81172 2.64322 1.75091 2.36976 1.75091L2.36963 1.75078C2.09241 1.75078 1.84696 1.81535 1.6334 1.94463C1.41984 2.07377 1.2531 2.25271 1.13329 2.48131C1.15196 2.01672 1.26075 1.66546 1.45926 1.42753C1.65791 1.1896 1.96884 1.02376 2.39219 0.93014L3.63981 0.643583L3.57239 0.27832L2.24606 0.581863C1.73272 0.701802 1.35527 0.930269 1.11358 1.26752C0.871884 1.60465 0.751038 2.08998 0.751038 2.72313C0.751038 3.33008 0.885888 3.80595 1.15572 4.1506C1.42542 4.49524 1.80585 4.6677 2.29663 4.6677C2.58876 4.6677 2.84744 4.60598 3.07215 4.48228C3.29698 4.35871 3.47216 4.18535 3.59767 3.96245C3.72319 3.73943 3.78595 3.48374 3.78595 3.19523C3.78595 2.91425 3.72604 2.66426 3.6061 2.445C3.48616 2.22587 3.31851 2.05536 3.10314 1.93361ZM2.86144 4.19287C2.69846 4.2883 2.51394 4.33614 2.30791 4.33614H2.30765C2.10161 4.33614 1.91607 4.28843 1.75126 4.19287C1.58646 4.0973 1.45809 3.96336 1.36629 3.79104C1.27449 3.61872 1.22859 3.42396 1.22859 3.20665C1.22859 2.98933 1.27449 2.79833 1.36629 2.6334C1.45809 2.4686 1.58555 2.34023 1.74854 2.24843C1.91153 2.15663 2.09798 2.11073 2.30778 2.11073C2.51771 2.11073 2.70403 2.15663 2.86702 2.24843C3.03001 2.34023 3.15656 2.4686 3.24642 2.6334C3.3364 2.7982 3.38127 2.98933 3.38127 3.20665C3.38127 3.42396 3.33536 3.61872 3.24356 3.79104C3.15176 3.96336 3.02443 4.0973 2.86144 4.19287ZM6.64659 2.72326C7.01755 2.72702 7.29944 2.80948 7.49238 2.97053C7.68532 3.1317 7.78179 3.36393 7.78179 3.66734C7.78179 3.98203 7.6778 4.22373 7.46982 4.39229C7.26184 4.56085 6.96115 4.64332 6.56775 4.63956L5.37627 4.63398V1.67791H5.77538V2.71198L6.64646 2.72326H6.64659ZM7.16654 4.17031C7.02598 4.28467 6.81891 4.33991 6.54545 4.33615L5.77551 4.32486V3.00969L6.54545 3.02097C6.82267 3.02473 7.03065 3.07906 7.16926 3.18395C7.30787 3.28885 7.37724 3.45002 7.37724 3.66734C7.37724 3.88842 7.30696 4.05607 7.16654 4.17031ZM11.8171 1.65535C12.0943 1.65535 12.3444 1.71901 12.5673 1.84647C12.7902 1.97393 12.9654 2.15183 13.0928 2.38043C13.2201 2.60903 13.2839 2.86744 13.2839 3.15595C13.2839 3.44445 13.2203 3.703 13.0928 3.93146C12.9654 4.16006 12.7903 4.339 12.5673 4.46814C12.3444 4.59742 12.0943 4.66199 11.8171 4.66199C11.5547 4.66199 11.3169 4.60481 11.1033 4.49057C10.8897 4.37634 10.7165 4.21802 10.5834 4.01562C10.4504 3.81334 10.3726 3.58098 10.3502 3.31867H9.67579V4.63385H9.27668V1.67778H9.67579V2.95354H10.3557C10.3857 2.69875 10.4671 2.47301 10.6002 2.27631C10.7332 2.07961 10.9046 1.92699 11.1144 1.81834C11.3242 1.70968 11.5584 1.65535 11.8169 1.65535H11.8171ZM12.365 4.16758C12.202 4.26496 12.0193 4.31371 11.8171 4.31371C11.6148 4.31371 11.4321 4.26509 11.2691 4.16758C11.1061 4.0702 10.9777 3.93341 10.8841 3.75733C10.7904 3.58124 10.7436 3.38065 10.7436 3.15595C10.7436 2.93111 10.7905 2.73065 10.8841 2.55457C10.9777 2.37835 11.1061 2.2426 11.2691 2.14703C11.4321 2.0516 11.6148 2.00375 11.8171 2.00375C12.0193 2.00375 12.202 2.05147 12.365 2.14703C12.528 2.2426 12.6564 2.37848 12.75 2.55457C12.8436 2.73065 12.8904 2.93111 12.8904 3.15595C12.8904 3.38078 12.8436 3.58124 12.75 3.75733C12.6562 3.93341 12.528 4.0702 12.365 4.16758ZM16.8414 2.03189H15.723V4.63398H15.3239V2.03189H14.2056V1.67791H16.8414V2.03189ZM18.5557 1.67791H18.1566V4.63398H18.5163L20.4833 2.28487V4.63398H20.8824V1.67791H20.5282L18.5557 4.02703V1.67791ZM26.0414 3.31893H25.3672V4.63411H24.9681V1.67804H25.3672V2.97623H26.0471L27.0869 1.67804H27.5196L26.3562 3.11108L27.6039 4.63411H27.1318L26.0414 3.31893ZM29.3124 4.46827C29.541 4.59755 29.7976 4.66212 30.0824 4.66212C30.3671 4.66212 30.6237 4.59755 30.8523 4.46827C31.0808 4.33913 31.2597 4.16019 31.389 3.93159C31.5183 3.70313 31.5829 3.44458 31.5829 3.15608C31.5829 2.86757 31.5183 2.60915 31.389 2.38056C31.2599 2.15196 31.0809 1.97406 30.8523 1.8466C30.6239 1.71914 30.3671 1.65548 30.0824 1.65548C29.7976 1.65548 29.541 1.71927 29.3124 1.8466C29.0838 1.97406 28.904 2.15196 28.7729 2.38056C28.6418 2.60903 28.5762 2.86757 28.5762 3.15608C28.5762 3.44458 28.6418 3.703 28.7729 3.93159C28.904 4.16019 29.0838 4.339 29.3124 4.46827ZM30.0824 4.30814C30.2922 4.30814 30.4805 4.26029 30.6472 4.16473C30.8139 4.06917 30.9441 3.93341 31.0377 3.75733C31.1314 3.58124 31.1782 3.38078 31.1782 3.15595C31.1782 2.93111 31.1314 2.73065 31.0377 2.55457C30.9441 2.37848 30.8139 2.2426 30.6472 2.14703C30.4805 2.05147 30.2922 2.00375 30.0824 2.00375C29.8726 2.00375 29.6843 2.0516 29.5176 2.14703C29.3508 2.2426 29.2197 2.37835 29.1242 2.55457C29.0286 2.73065 28.9808 2.93111 28.9808 3.15595C28.9808 3.38065 29.0286 3.58124 29.1242 3.75733C29.2197 3.93341 29.3508 4.0693 29.5176 4.16473C29.6843 4.26029 29.8726 4.30814 30.0824 4.30814ZM35.6575 3.83033C35.6575 3.44069 35.4571 3.19899 35.0562 3.10538H35.056C35.2134 3.04923 35.3361 2.96391 35.4241 2.84968C35.5123 2.73532 35.5563 2.59774 35.5563 2.43657C35.5563 2.19306 35.4608 2.0057 35.2697 1.87461C35.0786 1.74352 34.8145 1.67791 34.4773 1.67791H33.1734V4.63398H34.5166C34.895 4.63398 35.1797 4.56461 35.3708 4.426C35.562 4.28739 35.6575 4.08888 35.6575 3.83033ZM33.5613 2.99296H34.4492C34.6778 2.99296 34.8528 2.94991 34.9747 2.86368C35.0965 2.77746 35.1574 2.65194 35.1574 2.48714C35.1574 2.32221 35.0965 2.19864 34.9747 2.11617C34.853 2.03371 34.6778 1.99247 34.4492 1.99247H33.5613V2.99283V2.99296ZM35.073 4.19559C34.9457 4.27806 34.7546 4.31929 34.4998 4.31929H34.4996H33.5611V3.2908H34.5391C34.7901 3.2908 34.9737 3.33294 35.0899 3.41722C35.206 3.5015 35.2641 3.63168 35.2641 3.80777C35.2641 3.98385 35.2005 4.11312 35.073 4.19559ZM38.5462 4.66212C38.2614 4.66212 38.0048 4.59755 37.7762 4.46827C37.5476 4.339 37.3678 4.16019 37.2367 3.93159C37.1056 3.703 37.04 3.44458 37.04 3.15608C37.04 2.86757 37.1056 2.60903 37.2367 2.38056C37.3678 2.15196 37.5476 1.97406 37.7762 1.8466C38.0048 1.71927 38.2614 1.65548 38.5462 1.65548C38.8309 1.65548 39.0877 1.71914 39.3161 1.8466C39.5447 1.97406 39.7237 2.15196 39.8528 2.38056C39.9821 2.60915 40.0467 2.86757 40.0467 3.15608C40.0467 3.44458 39.9821 3.70313 39.8528 3.93159C39.7235 4.16019 39.5446 4.33913 39.3161 4.46827C39.0875 4.59755 38.8309 4.66212 38.5462 4.66212ZM39.111 4.16473C38.9443 4.26029 38.756 4.30814 38.5462 4.30814C38.3364 4.30814 38.1481 4.26029 37.9814 4.16473C37.8146 4.0693 37.6835 3.93341 37.588 3.75733C37.4924 3.58124 37.4446 3.38065 37.4446 3.15595C37.4446 2.93111 37.4924 2.73065 37.588 2.55457C37.6835 2.37835 37.8146 2.2426 37.9814 2.14703C38.1481 2.0516 38.3364 2.00375 38.5462 2.00375C38.756 2.00375 38.9443 2.05147 39.111 2.14703C39.2777 2.2426 39.4079 2.37848 39.5015 2.55457C39.5952 2.73065 39.642 2.93111 39.642 3.15595C39.642 3.38078 39.5952 3.58124 39.5015 3.75733C39.4079 3.93341 39.2777 4.06917 39.111 4.16473ZM43.1603 1.65548C43.4375 1.65548 43.6885 1.71824 43.9134 1.84375C44.1381 1.96926 44.3143 2.14626 44.4416 2.37485C44.5691 2.60345 44.6327 2.86381 44.6327 3.15608C44.6327 3.4521 44.5691 3.71441 44.4416 3.94288C44.3143 4.17147 44.1391 4.34846 43.9162 4.47398C43.6933 4.59949 43.4412 4.66225 43.1603 4.66225C42.9205 4.66225 42.7041 4.61259 42.5112 4.5134C42.3182 4.41407 42.1599 4.26898 42.0362 4.07786V5.72458H41.6371V1.67817H42.0194V2.26256C42.1392 2.06781 42.2975 1.91792 42.4942 1.81302C42.6909 1.70812 42.9129 1.65561 43.1601 1.65561L43.1603 1.65548ZM43.6941 4.16473C43.5255 4.26029 43.3382 4.30814 43.1321 4.30814C42.9223 4.30814 42.7341 4.26029 42.5673 4.16473C42.4006 4.0693 42.2695 3.93341 42.1739 3.75733C42.0785 3.58124 42.0306 3.38065 42.0306 3.15595C42.0306 2.93111 42.0784 2.73169 42.1739 2.55742C42.2695 2.38315 42.4006 2.24739 42.5673 2.14989C42.7341 2.05251 42.9223 2.00375 43.1321 2.00375C43.3382 2.00375 43.5255 2.05251 43.6941 2.14989C43.8628 2.24739 43.9948 2.38315 44.0903 2.55742C44.1859 2.73169 44.2337 2.93111 44.2337 3.15595C44.2337 3.38078 44.1859 3.58124 44.0903 3.75733C43.9948 3.93341 43.8627 4.06917 43.6941 4.16473ZM47.3021 3.31893H46.6279V4.63411H46.2288V1.67804H46.6279V2.97623H47.3078L48.3476 1.67804H48.7803L47.6169 3.11108L48.8646 4.63411H48.3925L47.3021 3.31893ZM50.6293 1.67791H50.2302V4.63398H50.5899L52.5569 2.28487V4.63398H52.956V1.67791H52.6019L50.6293 4.02703V1.67791ZM54.833 1.67791H55.2321V2.98738H57.0922V1.67791H57.4913V4.63398H57.0922V3.33008H55.2321V4.63398H54.833V1.67791ZM59.7619 2.03189H61.4535V1.67791H59.3628V4.63398H59.7619V2.03189Z" fill="white"/>
</svg>
