<svg width="105" height="10" viewBox="0 0 105 10" fill="none" xmlns="http://www.w3.org/2000/svg">
<path fill-rule="evenodd" clip-rule="evenodd" d="M4.87534 3.48684C4.50921 3.27964 4.09348 3.17626 3.6286 3.17626L3.62838 3.17603C3.1571 3.17603 2.73983 3.28581 2.37678 3.50557C2.01374 3.72512 1.73027 4.02931 1.52659 4.41793C1.55833 3.62813 1.74327 3.03099 2.08075 2.62651C2.41845 2.22202 2.94703 1.94009 3.66673 1.78094L5.78769 1.2938L5.67307 0.672852L3.41831 1.18887C2.54563 1.39277 1.90397 1.78116 1.49309 2.3545C1.08221 2.92761 0.87677 3.75268 0.87677 4.82903C0.87677 5.86085 1.10602 6.66982 1.56473 7.25572C2.02322 7.84162 2.66995 8.13479 3.50427 8.13479C4.0009 8.13479 4.44065 8.02986 4.82266 7.81958C5.20488 7.60951 5.50268 7.3148 5.71605 6.93588C5.92943 6.55674 6.03611 6.12206 6.03611 5.63161C6.03611 5.15394 5.93428 4.72895 5.73038 4.35621C5.52648 3.98368 5.24147 3.69382 4.87534 3.48684ZM4.46446 7.32758C4.18738 7.48982 3.87371 7.57115 3.52345 7.57115H3.52301C3.17275 7.57115 2.85732 7.49004 2.57715 7.32758C2.29699 7.16512 2.07877 6.93742 1.9227 6.64447C1.76664 6.35152 1.68861 6.02044 1.68861 5.651C1.68861 5.28157 1.76664 4.95687 1.9227 4.67649C2.07877 4.39633 2.29545 4.1781 2.57252 4.02204C2.8496 3.86598 3.16658 3.78794 3.52323 3.78794C3.88011 3.78794 4.19686 3.86598 4.47394 4.02204C4.75102 4.1781 4.96616 4.39633 5.11891 4.67649C5.27189 4.95665 5.34816 5.28157 5.34816 5.651C5.34816 6.02044 5.27013 6.35152 5.11406 6.64447C4.958 6.93742 4.74154 7.16512 4.46446 7.32758ZM10.8992 4.82925C11.5298 4.83564 12.0091 4.97583 12.3371 5.2496C12.6651 5.5236 12.8291 5.91838 12.8291 6.43419C12.8291 6.96916 12.6523 7.38004 12.2987 7.6666C11.9451 7.95316 11.434 8.09335 10.7652 8.08696L8.73967 8.07748V3.05215H9.41814V4.81007L10.899 4.82925H10.8992ZM11.7831 7.28923C11.5442 7.48364 11.1922 7.57755 10.7273 7.57115L9.41836 7.55198V5.31617L10.7273 5.33535C11.1985 5.34174 11.5521 5.4341 11.7877 5.61243C12.0234 5.79075 12.1413 6.06475 12.1413 6.43418C12.1413 6.81001 12.0218 7.09503 11.7831 7.28923ZM19.689 3.0138C20.1603 3.0138 20.5855 3.12203 20.9644 3.33871C21.3433 3.55539 21.6411 3.85782 21.8578 4.24643C22.0743 4.63505 22.1827 5.07436 22.1827 5.56482C22.1827 6.05527 22.0745 6.4948 21.8578 6.8832C21.6411 7.27181 21.3435 7.576 20.9644 7.79555C20.5855 8.01532 20.1603 8.12509 19.689 8.12509C19.2431 8.12509 18.8388 8.02788 18.4755 7.83368C18.1125 7.63949 17.818 7.37034 17.5918 7.02626C17.3657 6.68239 17.2334 6.28738 17.1953 5.84145H16.0488V8.07726H15.3704V3.05193H16.0488V5.22073H17.2048C17.2557 4.78759 17.3941 4.40382 17.6203 4.06943C17.8464 3.73504 18.1378 3.4756 18.4945 3.29088C18.8512 3.10616 19.2492 3.0138 19.6888 3.0138H19.689ZM20.6205 7.2846C20.3435 7.45014 20.0329 7.53302 19.689 7.53302C19.3451 7.53302 19.0345 7.45036 18.7575 7.2846C18.4804 7.11906 18.2622 6.8865 18.103 6.58716C17.9436 6.28782 17.8641 5.94682 17.8641 5.56482C17.8641 5.18259 17.9439 4.84181 18.103 4.54247C18.2622 4.24291 18.4804 4.01212 18.7575 3.84966C19.0345 3.68743 19.3451 3.60609 19.689 3.60609C20.0329 3.60609 20.3435 3.68721 20.6205 3.84966C20.8976 4.01212 21.1158 4.24313 21.275 4.54247C21.4341 4.84181 21.5137 5.18259 21.5137 5.56482C21.5137 5.94704 21.4341 6.28782 21.275 6.58716C21.1156 6.8865 20.8976 7.11906 20.6205 7.2846ZM28.2304 3.65392H26.3292V8.07748H25.6507V3.65392H23.7495V3.05215H28.2304V3.65392ZM31.1447 3.05215H30.4662V8.07748H31.0776L34.4215 4.08398V8.07748H35.1V3.05215H34.498L31.1447 7.04565V3.05215ZM43.8704 5.84189H42.7242V8.0777H42.0457V3.05237H42.7242V5.2593H43.8801L45.6477 3.05237H46.3833L44.4056 5.48855L46.5266 8.0777H45.724L43.8704 5.84189ZM49.4312 7.79577C49.8198 8.01554 50.256 8.12531 50.7401 8.12531C51.2241 8.12531 51.6604 8.01554 52.049 7.79577C52.4374 7.57622 52.7416 7.27203 52.9613 6.88342C53.1811 6.49502 53.2909 6.05549 53.2909 5.56504C53.2909 5.07458 53.1811 4.63527 52.9613 4.24665C52.7418 3.85804 52.4376 3.55561 52.049 3.33893C51.6606 3.12225 51.2241 3.01402 50.7401 3.01402C50.256 3.01402 49.8198 3.12247 49.4312 3.33893C49.0425 3.55561 48.7368 3.85804 48.514 4.24665C48.2911 4.63505 48.1796 5.07458 48.1796 5.56504C48.1796 6.05549 48.2911 6.4948 48.514 6.88342C48.7368 7.27203 49.0425 7.576 49.4312 7.79577ZM50.7401 7.52354C51.0967 7.52354 51.4168 7.4422 51.7002 7.27975C51.9837 7.11729 52.205 6.8865 52.3642 6.58716C52.5233 6.28782 52.6029 5.94704 52.6029 5.56482C52.6029 5.18259 52.5233 4.84181 52.3642 4.54247C52.205 4.24313 51.9837 4.01212 51.7002 3.84966C51.4168 3.68721 51.0967 3.60609 50.7401 3.60609C50.3834 3.60609 50.0634 3.68743 49.7799 3.84966C49.4964 4.01212 49.2736 4.24291 49.1111 4.54247C48.9486 4.84181 48.8673 5.18259 48.8673 5.56482C48.8673 5.94682 48.9486 6.28782 49.1111 6.58716C49.2736 6.8865 49.4964 7.11751 49.7799 7.27975C50.0634 7.4422 50.3834 7.52354 50.7401 7.52354ZM60.2178 6.71126C60.2178 6.04888 59.877 5.638 59.1955 5.47885H59.1953C59.4629 5.3834 59.6714 5.23836 59.821 5.04416C59.9709 4.84975 60.0457 4.61587 60.0457 4.34188C60.0457 3.92792 59.8834 3.6094 59.5585 3.38654C59.2336 3.16369 58.7846 3.05215 58.2115 3.05215H55.9949V8.07748H58.2783C58.9215 8.07748 59.4055 7.95955 59.7305 7.72391C60.0554 7.48827 60.2178 7.1508 60.2178 6.71126ZM56.6542 5.28774H58.1636C58.5523 5.28774 58.8498 5.21456 59.057 5.06797C59.264 4.92139 59.3676 4.70801 59.3676 4.42785C59.3676 4.14746 59.264 3.93739 59.057 3.7972C58.8501 3.65701 58.5523 3.58691 58.1636 3.58691H56.6542V5.28752V5.28774ZM59.2241 7.33221C59.0077 7.4724 58.6828 7.5425 58.2496 7.5425H58.2494H56.6539V5.79406H58.3164C58.7432 5.79406 59.0553 5.8657 59.2528 6.00898C59.4503 6.15226 59.549 6.37357 59.549 6.67291C59.549 6.97225 59.4408 7.19202 59.2241 7.33221ZM65.1285 8.12531C64.6445 8.12531 64.2082 8.01554 63.8196 7.79577C63.431 7.576 63.1253 7.27203 62.9024 6.88342C62.6796 6.4948 62.568 6.05549 62.568 5.56504C62.568 5.07458 62.6796 4.63505 62.9024 4.24665C63.1253 3.85804 63.431 3.55561 63.8196 3.33893C64.2082 3.12247 64.6445 3.01402 65.1285 3.01402C65.6126 3.01402 66.049 3.12225 66.4374 3.33893C66.826 3.55561 67.1302 3.85804 67.3498 4.24665C67.5695 4.63527 67.6793 5.07458 67.6793 5.56504C67.6793 6.05549 67.5695 6.49502 67.3498 6.88342C67.13 7.27203 66.8258 7.57622 66.4374 7.79577C66.0488 8.01554 65.6126 8.12531 65.1285 8.12531ZM66.0887 7.27975C65.8052 7.4422 65.4852 7.52354 65.1285 7.52354C64.7719 7.52354 64.4518 7.4422 64.1683 7.27975C63.8849 7.11751 63.662 6.8865 63.4996 6.58716C63.3371 6.28782 63.2558 5.94682 63.2558 5.56482C63.2558 5.18259 63.3371 4.84181 63.4996 4.54247C63.662 4.24291 63.8849 4.01212 64.1683 3.84966C64.4518 3.68743 64.7719 3.60609 65.1285 3.60609C65.4852 3.60609 65.8052 3.68721 66.0887 3.84966C66.3722 4.01212 66.5935 4.24313 66.7526 4.54247C66.9118 4.84181 66.9914 5.18259 66.9914 5.56482C66.9914 5.94704 66.9118 6.28782 66.7526 6.58716C66.5935 6.8865 66.3722 7.11729 66.0887 7.27975ZM72.9725 3.01402C73.4437 3.01402 73.8705 3.12071 74.2527 3.33408C74.6347 3.54746 74.9343 3.84834 75.1507 4.23696C75.3674 4.62557 75.4756 5.06819 75.4756 5.56504C75.4756 6.06827 75.3674 6.5142 75.1507 6.90259C74.9343 7.29121 74.6365 7.59209 74.2576 7.80547C73.8786 8.01884 73.4501 8.12553 72.9725 8.12553C72.5649 8.12553 72.197 8.04111 71.869 7.87248C71.541 7.70363 71.2719 7.45697 71.0616 7.13206V9.9315H70.3831V3.05259H71.0329V4.04607C71.2366 3.71498 71.5057 3.46017 71.8401 3.28184C72.1745 3.10351 72.5519 3.01424 72.9722 3.01424L72.9725 3.01402ZM73.88 7.27975C73.5934 7.4422 73.2749 7.52354 72.9246 7.52354C72.568 7.52354 72.2479 7.4422 71.9644 7.27975C71.681 7.11751 71.4581 6.8865 71.2957 6.58716C71.1334 6.28782 71.0521 5.94682 71.0521 5.56482C71.0521 5.18259 71.1332 4.84357 71.2957 4.54732C71.4581 4.25106 71.681 4.02028 71.9644 3.85451C72.2479 3.68897 72.568 3.60609 72.9246 3.60609C73.2749 3.60609 73.5934 3.68897 73.88 3.85451C74.1667 4.02028 74.3911 4.25106 74.5536 4.54732C74.716 4.84357 74.7974 5.18259 74.7974 5.56482C74.7974 5.94704 74.716 6.28782 74.5536 6.58716C74.3911 6.8865 74.1665 7.11729 73.88 7.27975ZM80.0136 5.84189H78.8674V8.0777H78.1889V3.05237H78.8674V5.2593H80.0233L81.7909 3.05237H82.5265L80.5488 5.48855L82.6698 8.0777H81.8672L80.0136 5.84189ZM85.6698 3.05215H84.9913V8.07748H85.6028L88.9467 4.08398V8.07748H89.6252V3.05215H89.0232L85.6698 7.04565V3.05215ZM92.8161 3.05215H93.4945V5.27826H96.6568V3.05215H97.3353V8.07748H96.6568V5.86085H93.4945V8.07748H92.8161V3.05215ZM101.195 3.65392H104.071V3.05215H100.517V8.07748H101.195V3.65392Z" fill="#34343F"/>
</svg>
