<svg width="64" height="23" viewBox="0 0 64 23" fill="none" xmlns="http://www.w3.org/2000/svg">
<path fill-rule="evenodd" clip-rule="evenodd" d="M37.0144 6.63839C38.542 6.63839 39.9351 6.982 41.1932 7.66818C41.823 8.0114 42.3865 8.42217 42.8822 8.89947C43.3792 9.37767 43.809 9.92238 44.1703 10.5321C44.531 11.1414 44.8025 11.7928 44.9835 12.4853C45.1645 13.1756 45.255 13.9044 45.255 14.6687C45.255 15.433 45.1645 16.1626 44.9835 16.8555C44.8029 17.5492 44.5314 18.205 44.1703 18.8199C43.8092 19.435 43.3792 19.9842 42.8826 20.4644C42.3874 20.9434 41.8234 21.3559 41.1932 21.6996C40.5648 22.0424 39.9004 22.3003 39.2036 22.4715C38.506 22.6432 37.7755 22.7294 37.0143 22.7294C36.1322 22.7294 35.2997 22.6175 34.5175 22.3951C33.7361 22.1731 33.0044 21.8376 32.3243 21.3905C31.645 20.9439 31.0627 20.4184 30.5798 19.8143C30.3104 19.4774 30.0718 19.1163 29.8638 18.7307V22.6397H28.7735V0H29.8638V10.6197C30.073 10.2376 30.3134 9.87895 30.5849 9.54428C31.0698 8.94615 31.6566 8.42269 32.3413 7.97613C33.0261 7.52996 33.7592 7.19478 34.5374 6.9724C35.3166 6.75003 36.1428 6.63852 37.0141 6.63852L37.0144 6.63839ZM20.9287 2.82719C21.0534 2.8775 21.1904 2.90356 21.3356 2.90356V2.90382C21.4717 2.90382 21.6024 2.87737 21.7254 2.82654C21.8436 2.7774 21.9576 2.70219 22.0639 2.60274C22.1706 2.50277 22.2517 2.39476 22.3055 2.2804C22.3623 2.15955 22.3913 2.03235 22.3913 1.90048C22.3913 1.75954 22.3628 1.62676 22.3064 1.50293C22.2505 1.38209 22.1676 1.2733 22.0583 1.17761C21.8458 0.991019 21.6041 0.897143 21.3356 0.897143C21.1922 0.897143 21.0568 0.921001 20.9322 0.967939C20.8067 1.01566 20.6931 1.08749 20.5911 1.18305C20.3836 1.37729 20.2793 1.61678 20.2793 1.90035C20.2793 2.03131 20.3063 2.15683 20.3596 2.27599C20.4112 2.39165 20.4872 2.50056 20.5859 2.59833C20.6874 2.69908 20.8019 2.77597 20.9287 2.82719ZM17.3544 7.05254L9.69127 22.6395H8.77377C6.65534 18.3156 4.52864 13.9949 2.4021 9.67448L0.951935 6.72799H2.18828L9.23278 21.211L16.2773 6.72799H17.5136L17.3544 7.05241V7.05254ZM21.0162 6.72812H21.0164H21.8808V22.6397H20.7905V6.72812H21.0162ZM38.9403 21.4848C38.3324 21.6341 37.6898 21.7093 37.0144 21.7093H37.0141C36.3387 21.7093 35.6962 21.6341 35.0882 21.4848C34.4799 21.3353 33.901 21.1099 33.3545 20.8106C32.8085 20.5114 32.3208 20.1531 31.8944 19.7369C31.4688 19.3211 31.1003 18.8442 30.7908 18.3092C30.4826 17.7751 30.2507 17.2038 30.0962 16.598C29.9416 15.9921 29.864 15.3483 29.864 14.6686C29.864 13.9888 29.9416 13.345 30.0962 12.7392C30.2506 12.133 30.483 11.5617 30.7912 11.0276C31.099 10.4941 31.4674 10.0192 31.8944 9.60471C32.3206 9.19147 32.8072 8.83658 33.3528 8.54289C33.901 8.24778 34.48 8.02579 35.0875 7.87849C35.6951 7.73159 36.3381 7.65781 37.0143 7.65781C37.6906 7.65781 38.3336 7.73159 38.9411 7.87849C39.5485 8.02592 40.128 8.24791 40.6757 8.54289C41.2218 8.83671 41.7085 9.19147 42.1342 9.60471C42.5615 10.0192 42.93 10.4939 43.2379 11.0276C43.5461 11.5617 43.7783 12.1329 43.9328 12.7392C44.087 13.3451 44.1647 13.9893 44.1647 14.6686C44.1647 15.3479 44.087 15.9922 43.9328 16.598C43.7783 17.2043 43.5461 17.776 43.2379 18.3101C42.9295 18.8442 42.5611 19.3201 42.1338 19.7373C41.7069 20.154 41.2198 20.5127 40.6741 20.8106C40.1267 21.1103 39.5478 21.3358 38.9403 21.4848ZM63.7744 14.8946H49.314C49.3477 16.1583 49.6667 17.2961 50.2686 18.3062C50.588 18.8416 50.9688 19.3194 51.4085 19.7356C51.8469 20.151 52.3485 20.5097 52.9113 20.8089C53.4722 21.1086 54.0703 21.3337 54.7048 21.4835C55.3401 21.6337 56.0117 21.7093 56.7174 21.7093C57.2682 21.7093 57.8014 21.6594 58.3159 21.5603C58.8312 21.4613 59.3299 21.3118 59.8094 21.1142C60.2859 20.9173 60.7218 20.6749 61.1154 20.3883C61.5068 20.1036 61.8565 19.7736 62.1634 19.4L62.3154 19.2151L63.0979 19.9477L62.9532 20.1107C62.5788 20.5334 62.1608 20.907 61.7005 21.2301C61.2407 21.5528 60.7365 21.8273 60.1875 22.0537C59.641 22.2783 59.0774 22.4483 58.4998 22.5604C57.9217 22.6723 57.3261 22.7291 56.7173 22.7291C55.1048 22.7291 53.6587 22.3859 52.3801 21.7003C51.7393 21.357 51.1659 20.9442 50.662 20.4651C50.1577 19.9852 49.7214 19.4366 49.3547 18.8213C48.988 18.2057 48.7113 17.5495 48.5277 16.8561C48.3445 16.1632 48.2523 15.4336 48.2523 14.6685C48.2523 13.9051 48.3374 13.1772 48.5073 12.4876C48.6767 11.7981 48.932 11.1474 49.2711 10.5374C49.6113 9.92692 50.0165 9.38117 50.4854 8.90388C50.9538 8.42658 51.4882 8.01451 52.0868 7.67038C53.2826 6.98265 54.6241 6.63813 56.1102 6.63813C56.8407 6.63813 57.5409 6.72267 58.2091 6.89214C58.8776 7.06122 59.5141 7.31524 60.1162 7.65379C60.7177 7.99156 61.2577 8.39624 61.733 8.86368C62.2076 9.33202 62.6188 9.86403 62.9639 10.4587C63.3093 11.0547 63.5692 11.6929 63.7413 12.371C63.9138 13.0468 64 13.7637 64 14.5188V14.8941H63.7741L63.7744 14.8946ZM54.3368 7.86721C54.8966 7.72809 55.4887 7.65807 56.1103 7.65807L56.1102 7.65768C56.7323 7.65768 57.3245 7.7277 57.8847 7.86734C58.4448 8.00699 58.978 8.21692 59.4813 8.49621C59.9855 8.77551 60.4419 9.10848 60.8484 9.49397C61.2557 9.87998 61.6147 10.3201 61.9234 10.8115C62.2316 11.3021 62.4711 11.8234 62.6406 12.372C62.7883 12.8497 62.8838 13.3513 62.9266 13.8748H49.3257C49.368 13.3506 49.4624 12.8489 49.6074 12.3716C49.7745 11.8226 50.011 11.3014 50.3141 10.8099C50.6169 10.3194 50.972 9.87972 51.3759 9.49462C51.7804 9.10913 52.2355 8.77577 52.7392 8.49647C53.2426 8.2177 53.7759 8.00764 54.3368 7.86721Z" fill="white"/>
</svg>
