<svg width="108" height="39" viewBox="0 0 108 39" fill="none" xmlns="http://www.w3.org/2000/svg">
<path fill-rule="evenodd" clip-rule="evenodd" d="M62.1245 11.2853C64.7213 11.2853 67.0896 11.8694 69.2284 13.0359C70.299 13.6194 71.257 14.3177 72.0997 15.1291C72.9446 15.942 73.6753 16.8681 74.2895 17.9045C74.9027 18.9403 75.3643 20.0477 75.672 21.225C75.9797 22.3986 76.1336 23.6374 76.1336 24.9368C76.1336 26.236 75.9797 27.4764 75.672 28.6544C75.3649 29.8336 74.9034 30.9486 74.2895 31.9938C73.6756 33.0396 72.9446 33.9731 72.1004 34.7895C71.2586 35.6038 70.2997 36.305 69.2284 36.8893C68.1602 37.4721 67.0308 37.9106 65.8462 38.2015C64.6603 38.4934 63.4184 38.64 62.1242 38.64C60.6247 38.64 59.2095 38.4497 57.8797 38.0717C56.5514 37.6943 55.3075 37.1239 54.1514 36.3638C52.9965 35.6047 52.0066 34.7113 51.1857 33.6843C50.7277 33.1116 50.3221 32.4977 49.9685 31.8422V38.4874H48.1149V0H49.9685V18.0535C50.3241 17.4039 50.7327 16.7942 51.1943 16.2253C52.0187 15.2084 53.0162 14.3186 54.1802 13.5594C55.3443 12.8009 56.5906 12.2311 57.9136 11.8531C59.2382 11.4751 60.6427 11.2855 62.124 11.2855L62.1245 11.2853ZM34.7788 4.80622C34.9908 4.89174 35.2236 4.93605 35.4705 4.93605V4.93649C35.702 4.93649 35.9241 4.89152 36.1331 4.80512C36.3341 4.72157 36.5279 4.59372 36.7086 4.42466C36.8901 4.25471 37.0278 4.07109 37.1193 3.87667C37.2159 3.67123 37.2652 3.45499 37.2652 3.23082C37.2652 2.99121 37.2167 2.76549 37.1208 2.55498C37.0258 2.34954 36.885 2.16461 36.6992 2.00193C36.3379 1.68473 35.927 1.52514 35.4705 1.52514C35.2267 1.52514 34.9966 1.5657 34.7847 1.6455C34.5714 1.72661 34.3783 1.84873 34.2048 2.01119C33.8521 2.34139 33.6749 2.74852 33.6749 3.2306C33.6749 3.45323 33.7207 3.6666 33.8113 3.86918C33.8991 4.0658 34.0282 4.25096 34.196 4.41716C34.3686 4.58843 34.5632 4.71915 34.7788 4.80622ZM28.7025 11.9893L15.6752 38.4872H14.1154C10.5143 31.1371 6.8992 23.7923 3.28432 16.4481L3.26933 16.4177L3.2639 16.4066C2.44863 14.7503 1.63338 13.0939 0.818298 11.4376H2.92008L14.8957 36.0588L26.8714 11.4376H28.9732L28.7025 11.9891V11.9893ZM34.9276 11.4378H34.9278H36.3974V38.4874H34.5438V11.4378H34.9276ZM65.3985 36.5241C64.3651 36.778 63.2727 36.9059 62.1245 36.9059H62.124C60.9758 36.9059 59.8836 36.778 58.85 36.5241C57.8158 36.2699 56.8318 35.8868 55.9027 35.3781C54.9744 34.8693 54.1454 34.2603 53.4204 33.5527C52.697 32.8458 52.0705 32.0351 51.5443 31.1256C51.0204 30.2176 50.6263 29.2464 50.3635 28.2166C50.1008 27.1865 49.9687 26.0921 49.9687 24.9366C49.9687 23.7809 50.1008 22.6865 50.3635 21.6566C50.626 20.6261 51.0211 19.6549 51.545 18.747C52.0683 17.8399 52.6945 17.0327 53.4204 16.328C54.145 15.6255 54.9722 15.0222 55.8998 14.5229C56.8318 14.0212 57.816 13.6438 58.8487 13.3934C59.8816 13.1437 60.9747 13.0183 62.1242 13.0183C63.274 13.0183 64.3671 13.1437 65.3998 13.3934C66.4325 13.6441 67.4176 14.0214 68.3487 14.5229C69.2771 15.0224 70.1044 15.6255 70.8281 16.328C71.5546 17.0327 72.1811 17.8397 72.7044 18.747C73.2283 19.6549 73.6231 20.6259 73.8859 21.6566C74.1479 22.6867 74.28 23.7818 74.28 24.9366C74.28 26.0914 74.1479 27.1867 73.8859 28.2166C73.6231 29.2473 73.2283 30.2192 72.7044 31.1271C72.1802 32.0351 71.5539 32.8442 70.8274 33.5534C70.1018 34.2618 69.2736 34.8715 68.3461 35.3781C67.4154 35.8875 66.4312 36.2708 65.3985 36.5241ZM107.616 25.3208H83.0338C83.0912 27.4691 83.6334 29.4034 84.6566 31.1205C85.1996 32.0307 85.847 32.8429 86.5944 33.5505C87.3397 34.2568 88.1925 34.8665 89.1492 35.3752C90.1028 35.8846 91.1196 36.2673 92.1982 36.5219C93.2783 36.7774 94.4198 36.9059 95.6196 36.9059C96.556 36.9059 97.4624 36.821 98.3371 36.6526C99.2131 36.4842 100.061 36.23 100.876 35.8941C101.686 35.5595 102.427 35.1473 103.096 34.6601C103.762 34.1761 104.356 33.6151 104.878 32.98L105.136 32.6657L106.466 33.9111L106.22 34.1882C105.584 34.9068 104.873 35.5419 104.091 36.0912C103.309 36.6398 102.452 37.1065 101.519 37.4913C100.59 37.8731 99.6317 38.1621 98.6496 38.3528C97.667 38.543 96.6543 38.6395 95.6194 38.6395C92.8782 38.6395 90.4197 38.0561 88.2461 36.8904C87.1567 36.307 86.182 35.6051 85.3254 34.7906C84.4682 33.9748 83.7264 33.0422 83.1031 31.9963C82.4797 30.9497 82.0093 29.8341 81.6972 28.6555C81.3857 27.4775 81.229 26.2371 81.229 24.9364C81.229 23.6387 81.3736 22.4012 81.6623 21.229C81.9504 20.0568 82.3845 18.9507 82.9609 17.9135C83.5393 16.8758 84.2281 15.948 85.0252 15.1366C85.8214 14.3252 86.73 13.6247 87.7475 13.0397C89.7805 11.8705 92.061 11.2848 94.5874 11.2848C95.8293 11.2848 97.0196 11.4285 98.1554 11.7166C99.292 12.0041 100.374 12.4359 101.398 13.0114C102.42 13.5857 103.338 14.2736 104.146 15.0683C104.953 15.8644 105.652 16.7689 106.239 17.7797C106.826 18.7931 107.268 19.878 107.56 21.0306C107.853 22.1795 108 23.3982 108 24.682V25.3199H107.616L107.616 25.3208ZM91.5726 13.3743C92.5242 13.1377 93.5309 13.0187 94.5876 13.0187L94.5874 13.0181C95.645 13.0181 96.6517 13.1371 97.6039 13.3745C98.5562 13.6119 99.4626 13.9688 100.318 14.4436C101.175 14.9184 101.951 15.4844 102.642 16.1398C103.335 16.796 103.945 17.5441 104.47 18.3795C104.994 19.2136 105.401 20.0998 105.689 21.0324C105.94 21.8444 106.103 22.6973 106.175 23.5871H83.0537C83.1255 22.696 83.286 21.8431 83.5327 21.0317C83.8166 20.0984 84.2187 19.2123 84.734 18.3769C85.2487 17.543 85.8525 16.7955 86.5391 16.1409C87.2266 15.4855 88.0003 14.9188 88.8567 14.444C89.7124 13.9701 90.619 13.613 91.5726 13.3743Z" fill="#34343F"/>
</svg>
